<svg xmlns="http://www.w3.org/2000/svg" viewBox="0 0 3172.82 1534.15"><defs><style>.cls-1{fill:#d4642b;fill-rule:evenodd;}</style></defs><g id="katman_2" data-name="katman 2"><g id="Layer_1" data-name="Layer 1"><path class="cls-1" d="M1077.32,1155.59c71,40.63,153.09,4.33,264.93,79.23-36.09,15.66-75,31.66-111,59q-2.62-2.47-5.31-4.86c-12-10.53-24.91-19.08-38.73-27-20-11.4-41.15-21.47-61.92-31.36-16.7-8-29.31-19.06-37.34-35.87-5.82-12.17-8.68-25.88-10.65-39.2M249.23,539.53C406,283.78,740.35,203.61,996.1,360.41,1553.22,702,1667.59,1686.29,2511.41,1485.9c-821.49,76.47-910.68-956-1427-1269.59C749.16,10.73,310.7,115.89,105.13,451.18-73.4,742.36-17.59,1111.33,219.78,1338c202.54,195.49,581.78,291.79,906.52,63.45-45.79-1.57-132.15-46.73-132.15-46.73,148.86,45.33,190.32,6,269.25-3-46.88-57.27-52.81-64.87-144.15-108.38-59.22-28.2-53.94-83-62.36-138.11-11.7-76.57-48.12-136.4-83.4-171-89.84-88.13-60.32-180.15-69.37-292.91a50.56,50.56,0,0,1,.31-10.78h0c4.19-22,19.73-38.36,5.25-57C883,539.06,770.46,585.34,719.25,635.91c-46.06,45.48-74.18,162.59-119,227.59-108.57,157.37-347.31,47.62-283.11-156.85C237.19,918.36,487.71,1056.11,614,873c26.56-38.5,97.51-228.63,91-165.73-7,66.87-14.1,125.36-59.33,167,104.7-65.35,48.5-265.12,209.61-292-10,10.8-21.69,50.25,5.13,57.14,15,150.34-139,420.32-223.15,482.46,20.79-3.45,50.67-10.07,58.34-14.54C446.26,1373-31.15,996.85,249.23,539.53Z"/><path class="cls-1" d="M2095.5,378.57c-71-40.64-153.09-4.34-264.93-79.24,36.09-15.65,75-31.65,111-59q2.63,2.49,5.31,4.86c12,10.53,24.91,19.08,38.73,27,20,11.39,41.16,21.47,61.92,31.36,16.7,7.95,29.32,19.06,37.35,35.86,5.81,12.17,8.67,25.88,10.64,39.21m828.1,616.05c-156.82,255.75-491.13,335.93-746.88,179.12C1619.6,832.16,1505.23-152.14,661.42,48.25c821.48-76.47,910.68,956,1426.95,1269.6,335.29,205.57,773.75,100.42,979.33-234.87C3246.22,791.8,3190.41,422.83,2953,196.13,2750.5.64,2371.26-95.66,2046.52,132.69c45.79,1.57,132.15,46.72,132.15,46.72-148.86-45.32-190.31-6-269.25,3,46.89,57.26,52.81,64.86,144.15,108.37,59.22,28.21,53.95,83,62.37,138.11,11.69,76.58,48.11,136.4,83.4,171,89.84,88.14,60.32,180.16,69.37,292.91a49.88,49.88,0,0,1-.32,10.78h0c-4.19,22-19.73,38.36-5.25,57,26.68,34.45,139.22-11.83,190.43-62.4,46.06-45.48,74.19-162.58,119-227.58C2681.16,513.28,2919.91,623,2855.7,827.5c79.93-211.7-170.59-349.46-296.89-166.36-26.56,38.5-97.52,228.63-91,165.73,7-66.87,14.1-125.35,59.34-167-104.7,65.36-48.5,265.12-209.62,292,10-10.79,21.7-50.25-5.13-57.13-15-150.35,139-420.33,223.15-482.47-20.79,3.46-50.66,10.08-58.34,14.54C2726.56,161.17,3204,537.31,2923.6,994.62Z"/></g></g></svg>