
<svg xmlns="http://www.w3.org/2000/svg" viewBox="0 0 1283.65 958.63"><defs><style>.cls-1{fill:#c6cbcb;}.cls-2{fill:#c1c6c6;}.cls-3{fill:#bfc6c7;}.cls-4{fill:#768d91;}.cls-5{fill:#b2bcbe;}.cls-6{fill:#532a08;}.cls-7{fill:#361d06;}.cls-8{fill:#010301;}.cls-9{fill:#010201;}.cls-10{fill:#73390a;}.cls-11{fill:#9b500c;}.cls-12{fill:#020402;}.cls-13{fill:#020401;}.cls-14{fill:#87410a;}.cls-15{fill:#a4560d;}.cls-16{fill:#401e06;}.cls-17{fill:#331b06;}.cls-18{fill:#553b10;}.cls-19{fill:#643c10;}.cls-20,.cls-22{fill:#dea42f;}.cls-21{fill:#bf8122;}.cls-22{opacity:0;}.cls-23{fill:#dba22e;opacity:0;}.cls-24{fill:#d9a02e;opacity:0;}.cls-25{fill:#d69e2d;opacity:0;}.cls-26{fill:#d49c2d;opacity:0;}.cls-27{fill:#d19b2c;opacity:0.01;}.cls-28{fill:#cf992c;opacity:0.01;}.cls-29{fill:#cc972b;opacity:0.01;}.cls-30{fill:#ca952b;opacity:0.01;}.cls-31{fill:#c7932a;opacity:0.01;}.cls-32{fill:#c4912a;opacity:0.01;}.cls-33{fill:#c28f29;opacity:0.01;}.cls-34{fill:#bf8d29;opacity:0.01;}.cls-35{fill:#bd8b28;opacity:0.01;}.cls-36{fill:#ba8a27;opacity:0.02;}.cls-37{fill:#b88827;opacity:0.02;}.cls-38{fill:#b58626;opacity:0.02;}.cls-39{fill:#b38426;opacity:0.02;}.cls-40{fill:#b08225;opacity:0.02;}.cls-41{fill:#ae8025;opacity:0.02;}.cls-42{fill:#ab7e24;opacity:0.02;}.cls-43{fill:#a87c24;opacity:0.02;}.cls-44{fill:#a67b23;opacity:0.03;}.cls-45{fill:#a37923;opacity:0.03;}.cls-46{fill:#a17722;opacity:0.03;}.cls-47{fill:#9e7521;opacity:0.03;}.cls-48{fill:#9c7321;opacity:0.03;}.cls-49{fill:#997120;opacity:0.03;}.cls-50{fill:#976f20;opacity:0.03;}.cls-51{fill:#946d1f;opacity:0.03;}.cls-52{fill:#916b1f;opacity:0.03;}.cls-53{fill:#8f6a1e;opacity:0.04;}.cls-54{fill:#8c681e;opacity:0.04;}.cls-55{fill:#8a661d;opacity:0.04;}.cls-56{fill:#87641d;opacity:0.04;}.cls-57{fill:#85621c;opacity:0.04;}.cls-58{fill:#82601c;opacity:0.04;}.cls-59{fill:#805e1b;opacity:0.04;}.cls-60{fill:#7d5c1a;opacity:0.04;}.cls-61{fill:#7a5a1a;opacity:0.04;}.cls-62{fill:#785919;opacity:0.05;}.cls-63{fill:#755719;opacity:0.05;}.cls-64{fill:#735518;opacity:0.05;}.cls-65{fill:#705318;opacity:0.05;}.cls-66{fill:#6e5117;opacity:0.05;}.cls-67{fill:#6b4f17;opacity:0.05;}.cls-68{fill:#694d16;opacity:0.05;}.cls-69{fill:#664b16;opacity:0.05;}.cls-70{fill:#644a15;opacity:0.06;}.cls-71{fill:#614815;opacity:0.06;}.cls-72{fill:#5e4614;opacity:0.06;}.cls-73{fill:#5c4413;opacity:0.06;}.cls-74{fill:#594213;opacity:0.06;}.cls-75{fill:#574012;opacity:0.06;}.cls-76{fill:#543e12;opacity:0.06;}.cls-77{fill:#523c11;opacity:0.06;}.cls-78{fill:#4f3a11;opacity:0.06;}.cls-79{fill:#4d3910;opacity:0.07;}.cls-80{fill:#4a3710;opacity:0.07;}.cls-81{fill:#47350f;opacity:0.07;}.cls-82{fill:#45330f;opacity:0.07;}.cls-83{fill:#42310e;opacity:0.07;}.cls-84{fill:#402f0e;opacity:0.07;}.cls-85{fill:#3d2d0d;opacity:0.07;}.cls-86{fill:#3b2b0c;opacity:0.07;}.cls-87{fill:#38290c;opacity:0.07;}.cls-88{fill:#36280b;opacity:0.08;}.cls-89{fill:#33260b;opacity:0.08;}.cls-90{fill:#30240a;opacity:0.08;}.cls-91{fill:#2e220a;opacity:0.08;}.cls-92{fill:#2b2009;opacity:0.08;}.cls-93{fill:#291e09;opacity:0.08;}.cls-94{fill:#261c08;opacity:0.08;}.cls-95{fill:#241a08;opacity:0.08;}.cls-96{fill:#211907;opacity:0.09;}.cls-97{fill:#1f1706;opacity:0.09;}.cls-98{fill:#1c1506;opacity:0.09;}.cls-99{fill:#1a1305;opacity:0.09;}.cls-100{fill:#171105;opacity:0.09;}.cls-101{fill:#140f04;opacity:0.09;}.cls-102{fill:#120d04;opacity:0.09;}.cls-103{fill:#0f0b03;opacity:0.09;}.cls-104{fill:#0d0903;opacity:0.09;}.cls-105{fill:#0a0802;opacity:0.1;}.cls-106{fill:#080602;opacity:0.1;}.cls-107{fill:#050401;opacity:0.1;}.cls-108{fill:#030201;opacity:0.1;}.cls-109{opacity:0.1;}.cls-110{fill:#482e0d;}.cls-111{fill:#7c4c14;}.cls-112{fill:#c27f21;}.cls-113{fill:#cb8522;}.cls-114{fill:#dd9e2b;}.cls-115{fill:#cc8421;}.cls-116{fill:#db9929;}.cls-117{fill:#c88120;}.cls-118{fill:#dca12d;}.cls-119{fill:#c18222;}.cls-120{fill:#c68423;}.cls-121{fill:#ce8421;}.cls-122{fill:#db9c2b;}.cls-123{fill:#dea12c;}.cls-124{fill:#cd8521;}.cls-125{fill:#d07f1e;}.cls-126{fill:#c68222;}.cls-127{fill:#dc9c2a;}.cls-128{fill:#cd8b25;}.cls-129{fill:#cc8522;}.cls-130{fill:#c58222;}.cls-131{fill:#df9f2b;}.cls-132{fill:#bc7a22;}.cls-133{fill:#8a440b;}.cls-134{fill:#c38423;}.cls-135{fill:#241304;}.cls-136{fill:#9d500c;}.cls-137{fill:#291705;}.cls-138{fill:#a1540d;}.cls-139{fill:#311b06;}.cls-140{fill:#a3550d;}.cls-141{fill:#dcdbda;}.cls-142{fill:#c5cbcc;}.cls-143{fill:#d99b2b;}.cls-144{fill:#d79629;}.cls-145{fill:#030502;}.cls-146{fill:#a6520c;}.cls-147{fill:#b9570c;}.cls-148{fill:#c26a0f;}.cls-149{fill:#ad550d;}.cls-150{fill:#c57010;}.cls-151{fill:#c36d10;}.cls-152{fill:#a6530c;}.cls-153{fill:#ab550d;}.cls-154{fill:#a6580d;}.cls-155{fill:#c16b10;}</style></defs><g id="katman_2" data-name="katman 2"><g id="OBJECT"><g id="Fox"><g id="White_Mouth" data-name="White Mouth"><polygon class="cls-1" points="0 537.94 0 604.23 61.47 636.14 124.96 627.89 125.06 561.96 62.45 570.35 0 537.94"/><polygon class="cls-2" points="278.1 628.09 278.1 581.4 248.05 585.08 218.15 570.35 156.91 577.71 156.73 644.59 278.1 628.09"/><polygon class="cls-3" points="124.96 627.89 156.73 644.59 156.91 577.71 125.06 561.96 124.96 627.89"/><polygon class="cls-4" points="121.97 628.27 121.97 654.6 185.65 686.03 248.05 677.78 248.05 632.21 156.73 644.59 124.96 627.89 121.97 628.27"/><polygon class="cls-5" points="371.92 655.54 371.79 701.74 309.63 709.99 248.05 677.78 248.05 632.21 278.1 628.09 278.1 581.4 310.88 577.39 311.1 644.37 342.77 659.1 371.92 655.54"/></g><g id="Leg_Frontright" data-name="Leg Frontright"><polygon class="cls-6" points="242.16 702.92 242.16 796.01 273.39 812.9 273.39 718.83 242.16 702.92"/><polygon class="cls-7" points="334.08 748.88 334.08 803.67 273.39 812.9 273.39 718.83 334.08 748.88"/><polygon class="cls-8" points="242.16 796.01 242.16 862.59 273.39 878.5 273.39 812.9 242.16 796.01"/><polygon class="cls-9" points="334.08 870.84 334.08 803.67 273.39 812.9 273.39 878.5 334.08 870.84"/></g><g id="Leg_Frontleft" data-name="Leg Frontleft"><polygon class="cls-10" points="433.06 693.07 433.06 892.64 400.07 877.91 400.07 697.74 433.06 693.07"/><polygon class="cls-11" points="493.01 684.58 493.16 884.39 433.06 892.64 433.06 693.07 493.01 684.58"/><polygon class="cls-12" points="493.16 884.39 493.16 950.38 433.06 958.63 433.06 892.64 493.16 884.39"/><polygon class="cls-13" points="400.07 877.91 400.07 942.72 433.06 958.63 433.06 892.64 400.07 877.91"/></g><g id="Leg_Backleft" data-name="Leg Backleft"><polygon class="cls-14" points="797.19 641.53 797.19 841.97 767.14 827.24 767.14 645.77 797.19 641.53"/><polygon class="cls-15" points="858.47 632.8 858.47 834.31 797.19 841.97 797.19 641.53 858.47 632.8"/><polygon class="cls-13" points="767.14 827.24 767.14 892.64 797.19 909.14 797.19 841.97 767.14 827.24"/><polygon class="cls-12" points="858.47 834.31 858.47 899.71 797.19 909.14 797.19 841.97 858.47 834.31"/></g><g id="Leg_Backright" data-name="Leg Backright"><polygon class="cls-16" points="607.47 695.26 607.47 747.7 640.46 762.43 640.46 690.54 607.47 695.26"/><polygon class="cls-17" points="699.97 682.88 699.97 754.18 640.46 762.43 640.46 690.54 699.97 682.88"/><polygon class="cls-9" points="607.47 747.7 607.47 812.51 640.46 830.77 640.46 762.43 607.47 747.7"/><polygon class="cls-9" points="699.97 754.18 699.97 821.35 640.46 830.77 640.46 762.43 699.97 754.18"/></g><g id="Body"><polygon class="cls-18" points="212.11 682.53 212.11 688.19 339.38 751.53 339.38 705.86 309.77 709.99 248.13 677.78 212.11 682.53"/><polygon class="cls-19" points="400.07 697.74 400.07 744.16 339.38 751.53 339.38 705.86 400.07 697.74"/><polygon class="cls-20" points="505.9 293.47 731.54 267.5 919.78 360.65 524.19 414.56 524.1 302.85 505.9 293.47"/><polygon class="cls-21" points="919.74 560.33 919.74 360.59 524.05 414.56 524.02 636.14 371.92 655.54 371.79 701.74 858.47 632.85 858.47 572.71 919.74 560.33"/><g id="Shadow"><polygon class="cls-22" points="919.74 560.33 919.74 460.46 919.74 360.59 721.89 387.58 524.05 414.56 524.03 525.35 524.02 636.14 371.92 655.54 371.79 701.74 615.13 667.3 858.47 632.85 858.47 572.71 919.74 560.33"/><path class="cls-23" d="M718.67,388,522.84,415.41l-.16,109.9-.15,109.9L372,654.92l-.19,45.83S612.9,666.9,613.48,667s241.7-34.08,241.72-34.65V572.51c0-.12,60.58-12.46,60.58-12.58s0-96.85,0-97v-2.35c0-.39,0-99.4,0-99.4l-98.57,13.46Z"/><path class="cls-24" d="M715.44,388.5,521.63,416.26l-.3,109-.29,109-149,20-.25,45.46S610.68,666.5,611.84,666.6s240.06-33.72,240.09-34.85c0-.21,0-59.2,0-59.43s59.88-12.56,59.88-12.79c0-.47,0-96.19,0-96.59V460.6c0-.78,0-98.92,0-98.92l-98.2,13.41Z"/><path class="cls-25" d="M712.22,389l-191.8,28.15L520,525.23l-.44,108.12L372.1,653.68l-.31,45.09s236.67-32.67,238.4-32.52,238.42-33.36,238.46-35c0-.33,0-58.74,0-59.09s59.17-12.64,59.18-13c0-.7,0-95.53,0-96.13v-2.32c0-1.18,0-98.46,0-98.46l-97.84,13.37Z"/><path class="cls-26" d="M709,389.43,519.21,418l-.58,107.24-.58,107.23L372.16,653.06l-.37,44.72s234.44-32.08,236.75-31.87,236.79-33,236.84-35.25c0-.44,0-58.27,0-58.73s58.48-12.74,58.48-13.2c0-.93,0-94.86,0-95.67v-2.31c0-1.57,0-98,0-98l-97.48,13.33Z"/><path class="cls-27" d="M705.77,389.89,518,418.8l-.73,106.35-.72,106.34-144.35,21-.42,44.35S604,665.3,606.9,665.56,842,632.92,842.11,630.11c0-.54,0-57.8,0-58.38s57.77-12.82,57.78-13.41c0-1.16,0-94.19,0-95.2,0,0,0-2.28,0-2.3,0-2,0-97.51,0-97.51L802.89,376.6Z"/><path class="cls-28" d="M702.54,390.35,516.8,419.65l-.87,105.45-.87,105.46L372.27,651.83l-.48,44s230-30.91,233.46-30.6,233.51-32.28,233.59-35.65c0-.65,0-57.33,0-58S896,558.62,896,557.92c0-1.39,0-93.53,0-94.74v-2.29c0-2.36,0-97,0-97L799.3,377.1Z"/><path class="cls-29" d="M699.32,390.81,515.59,420.49l-1,104.57-1,104.57L372.33,651.21l-.54,43.61s227.78-30.32,231.82-30,231.87-31.93,232-35.86c0-.76,0-56.86,0-57.66s56.38-13,56.39-13.83c0-1.62,0-92.87.06-94.28V461c0-2.75,0-96.57,0-96.57l-96.4,13.21Z"/><path class="cls-30" d="M696.09,391.27,514.38,421.34,513.23,525,512.08,628.7,372.39,650.59l-.6,43.24S597.34,664.1,602,664.52,832.19,633,832.3,628.46c0-.87,0-56.39.06-57.31s55.67-13.1,55.69-14c0-1.85.05-92.21.06-93.82V461c0-3.14,0-96.1,0-96.1l-96,13.17Z"/><path class="cls-31" d="M692.87,391.73l-179.7,30.46L511.88,525l-1.29,102.79L372.44,650l-.65,42.87s223.33-29.14,228.53-28.67S828.91,633,829,627.91c0-1,0-55.92.06-56.95s55-13.19,55-14.24c0-2.09.06-91.55.08-93.36V461.1c0-3.53.05-95.62.05-95.62l-95.67,13.13Z"/><path class="cls-32" d="M689.64,392.2,512,423l-1.43,101.91-1.44,101.9L372.5,649.35l-.71,42.5s221.11-28.55,226.88-28,227-30.84,227.09-36.46c0-1.08,0-55.45.07-56.6s54.27-13.28,54.29-14.44c0-2.32.06-90.89.08-92.9,0-.05,0-2.19,0-2.24,0-3.93,0-95.16,0-95.16L785,379.11Z"/><path class="cls-33" d="M686.42,392.66,510.76,423.88l-1.58,101-1.58,101-135,22.83-.77,42.12s218.88-28,225.23-27.38S822.34,633,822.49,626.81c0-1.19,0-55,.07-56.24s53.58-13.37,53.6-14.65c0-2.55.07-90.23.09-92.44v-2.23c0-4.32.06-94.69.06-94.69l-94.94,13.05Z"/><path class="cls-34" d="M683.19,393.12,509.55,424.73l-1.72,100.12L506.11,625,372.62,648.12l-.83,41.75s216.66-27.37,223.59-26.74S819.05,633,819.21,626.26c0-1.3.06-54.51.09-55.88s52.88-13.47,52.9-14.87c0-2.78.07-89.56.1-92v-2.22c.05-4.71.07-94.22.07-94.22l-94.59,13Z"/><path class="cls-35" d="M680,393.58l-171.63,32-1.86,99.24-1.86,99.25L372.68,647.5l-.89,41.39s214.44-26.79,221.94-26.11,222-29.76,222.21-37.07c0-1.41.07-54,.1-55.53s52.17-13.55,52.19-15.07c0-3,.09-88.9.11-91.51v-2.21c.06-5.1.08-93.74.08-93.74l-94.23,13Z"/><path class="cls-36" d="M676.74,394,507.13,426.42l-2,98.35-2,98.36L372.73,646.88l-.94,41S584,661.7,592.09,662.43,812.48,633,812.67,625.17c0-1.52.07-53.57.1-55.18s51.48-13.65,51.5-15.28c.05-3.24.09-88.24.12-91.05v-2.2c.06-5.49.08-93.27.08-93.27l-93.86,12.93Z"/><path class="cls-37" d="M673.52,394.51l-167.6,32.76-2.14,97.46-2.15,97.47L372.79,646.26l-1,40.65s210-25.61,218.65-24.82,218.76-29,219-37.47c0-1.63.08-53.1.11-54.83s50.77-13.73,50.8-15.48c.05-3.48.09-87.58.12-90.59,0-.08,0-2.11,0-2.19.06-5.89.08-92.8.08-92.8L767,381.62Z"/><path class="cls-38" d="M670.29,395,504.72,428.11l-2.29,96.58-2.29,96.58L372.85,645.64l-1.06,40.28s207.77-25,217-24.18,217.11-28.68,217.33-37.67c0-1.74.08-52.63.11-54.47s50.08-13.83,50.11-15.69c0-3.71.1-86.92.13-90.13V461.6c.07-6.28.09-92.33.09-92.33l-93.14,12.85Z"/><path class="cls-39" d="M667.07,395.43,503.51,429l-2.43,95.69-2.44,95.69L372.91,645l-1.12,39.9s205.54-24.43,215.36-23.54,215.48-28.31,215.71-37.87c0-1.85.08-52.16.12-54.11s49.37-13.92,49.4-15.9c.06-3.94.11-86.26.15-89.67v-2.17c.07-6.67.09-91.85.09-91.85l-92.77,12.8Z"/><path class="cls-40" d="M663.84,395.89,502.3,429.81l-2.57,94.8-2.58,94.8L373,644.41l-1.17,39.53S575.11,660.1,585.5,661.05s213.84-28,214.09-38.08c0-2,.09-51.69.13-53.76s48.67-14,48.7-16.1c.07-4.18.12-85.6.15-89.21,0-.09,0-2.06,0-2.15.07-7.07.1-91.39.1-91.39l-92.42,12.77Z"/><path class="cls-41" d="M660.62,396.35l-159.53,34.3-2.71,93.91-2.72,93.92L373,643.79,371.79,683s201.1-23.25,212.07-22.25,212.2-27.6,212.46-38.28c0-2.06.09-51.22.13-53.4s48-14.1,48-16.32c.07-4.4.12-84.93.16-88.74v-2.14c.08-7.46.11-90.92.11-90.92l-92.06,12.73Z"/><path class="cls-42" d="M657.39,396.82,499.88,431.5l-2.85,93-2.86,93L373.08,643.17,371.79,682s198.88-22.66,210.42-21.61,210.56-27.23,210.84-38.48c.05-2.17.1-50.75.14-53s47.27-14.19,47.31-16.52c.07-4.63.12-84.27.17-88.28v-2.13c.08-7.85.11-90.45.11-90.45l-91.69,12.69Z"/><path class="cls-43" d="M654.17,397.28,498.68,432.35l-3,92.13-3,92.14L373.14,642.55,371.79,681s196.65-22.08,208.78-21,208.92-26.87,209.2-38.68c.06-2.28.11-50.28.16-52.69s46.57-14.28,46.61-16.73c.07-4.87.13-83.61.17-87.82V462c.09-8.24.12-90,.12-90L745.5,384.63Z"/><path class="cls-44" d="M650.94,397.74,497.47,433.2l-3.15,91.24-3.14,91.25-118,26.24L371.79,680s194.43-21.49,207.13-20.33,207.29-26.52,207.58-38.89c.06-2.38.11-49.81.16-52.33s45.87-14.38,45.91-16.94c.08-5.1.14-82.95.19-87.36V462c.09-8.63.12-89.5.12-89.5l-91,12.6Z"/><path class="cls-45" d="M647.72,398.2,496.26,434,493,524.4l-3.28,90.36L373.25,641.32,371.79,679S564,658.1,577.28,659.31s205.64-26.16,206-39.09c.06-2.49.12-49.34.17-52s45.17-14.46,45.21-17.14c.08-5.33.15-82.29.19-86.9,0-.12,0-2,0-2.1.09-9,.13-89,.13-89l-90.61,12.57Z"/><path class="cls-46" d="M644.49,398.66,495.05,434.89l-3.43,89.47-3.42,89.47L373.31,640.7,371.79,678s190-20.31,203.84-19,204-25.79,204.33-39.29c.06-2.6.12-48.87.17-51.62s44.48-14.56,44.52-17.35c.08-5.57.15-81.63.2-86.44v-2.09c.1-9.42.14-88.55.14-88.55l-90.25,12.52Z"/><path class="cls-47" d="M641.27,399.12,493.84,435.74l-3.57,88.57L486.7,612.9,373.37,640.08,371.79,677S559.55,657.3,574,658.61s202.37-25.43,202.71-39.49c.07-2.71.13-48.4.18-51.27s43.77-14.64,43.82-17.55c.08-5.8.15-81,.21-86v-2.07c.1-9.82.14-88.09.14-88.09l-89.89,12.48Z"/><path class="cls-48" d="M638,399.59l-145.41,37-3.71,87.69L485.21,612,373.43,639.46,371.79,676s185.54-19.13,200.55-17.76,200.73-25.08,201.08-39.69c.07-2.82.13-47.94.19-50.92s43.07-14.74,43.11-17.76c.1-6,.17-80.31.22-85.52,0-.14,0-1.93,0-2.06.1-10.21.14-87.62.14-87.62l-89.52,12.44Z"/><path class="cls-49" d="M634.82,400.05,491.43,437.43l-3.86,86.8L483.72,611l-110.23,27.8-1.7,36.2s183.31-18.54,198.9-17.12S769.78,633.21,770.15,618c.07-2.93.13-47.46.19-50.56s42.37-14.83,42.42-18c.1-6.26.17-79.64.23-85.05v-2.05c.11-10.6.15-87.15.15-87.15L724,387.65Z"/><path class="cls-50" d="M631.59,400.51,490.22,438.28l-4,85.91-4,85.92L373.54,638.22l-1.75,35.83s181.09-17.95,197.26-16.48,197.45-24.35,197.83-40.09c.07-3,.14-47,.2-50.21s41.67-14.92,41.72-18.18c.1-6.49.18-79,.23-84.59,0-.15,0-1.9,0-2,.11-11,.15-86.67.15-86.67l-88.8,12.36Z"/><path class="cls-51" d="M628.37,401,489,439.12l-4.14,85-4.14,85L373.6,637.61l-1.81,35.46S550.66,655.7,567.4,657.23s195.81-24,196.21-40.3c.07-3.15.14-46.52.2-49.85s41-15,41-18.39c.1-6.72.18-78.32.24-84.13v-2c.12-11.38.17-86.2.17-86.2l-88.44,12.32Z"/><path class="cls-52" d="M625.14,401.43,487.8,440l-4.28,84.14-4.28,84.14L373.66,637l-1.87,35.09s176.65-16.78,194-15.2,194.17-23.63,194.57-40.5c.08-3.25.15-46,.22-49.5s40.27-15.1,40.32-18.59c.11-7,.19-77.66.26-83.67v-2c.12-11.77.17-85.73.17-85.73l-88.08,12.28Z"/><path class="cls-53" d="M621.92,401.9,486.59,440.82l-4.42,83.25-4.42,83.25-104,29-1.93,34.72s174.42-16.19,192.32-14.56,192.53-23.27,192.95-40.7c.08-3.36.16-45.58.23-49.14s39.57-15.19,39.62-18.8c.11-7.19.2-77,.26-83.21,0-.16,0-1.85,0-2,.12-12.16.17-85.26.17-85.26l-87.72,12.25Z"/><path class="cls-54" d="M618.69,402.36l-133.3,39.3L480.82,524l-4.57,82.37L373.77,635.75l-2,34.35S544,654.5,562.46,656.18s190.9-22.91,191.33-40.9c.09-3.47.16-45.11.23-48.78s38.87-15.29,38.93-19c.11-7.42.2-76.34.27-82.75v-2c.13-12.56.18-84.79.18-84.79l-87.35,12.2Z"/><path class="cls-55" d="M615.47,402.82,484.18,442.51,479.47,524l-4.71,81.48L373.83,635.13l-2,34s170-15,189-13.27,189.25-22.55,189.7-41.11c.09-3.58.17-44.64.24-48.43s38.17-15.37,38.23-19.21c.11-7.66.21-75.68.27-82.29,0-.17,0-1.81,0-2,.13-13,.18-84.32.18-84.32l-87,12.16Z"/><path class="cls-56" d="M612.24,403.28,483,443.36l-4.85,80.58-4.85,80.59-99.38,30-2.1,33.61s167.75-14.42,187.38-12.63,187.62-22.19,188.08-41.31c.09-3.68.17-44.17.24-48.07S785,550.64,785,546.68c.12-7.88.21-75,.28-81.82,0-.18,0-1.8,0-2,.13-13.35.19-83.85.19-83.85l-86.64,12.12Z"/><path class="cls-57" d="M609,403.74,481.76,444.2l-5,79.7-5,79.7L374,633.9l-2.16,33.23s165.53-13.83,185.74-12,186-21.83,186.45-41.51c.09-3.79.17-43.7.25-47.72s36.77-15.55,36.83-19.63c.13-8.11.22-74.35.3-81.36v-2c.14-13.74.2-83.38.2-83.38l-86.27,12.08Z"/><path class="cls-58" d="M605.79,404.21,480.55,445.05l-5.13,78.81-5.14,78.81L374,633.28l-2.22,32.86S535.1,652.9,555.88,654.79s184.34-21.47,184.83-41.71c.09-3.9.18-43.23.26-47.36S777,550.07,777.1,545.88c.13-8.35.23-73.69.3-80.9,0-.19,0-1.76,0-2,.14-14.13.2-82.9.2-82.9l-85.91,12Z"/><path class="cls-59" d="M602.57,404.67,479.35,445.9l-5.28,77.92-5.28,77.92-94.73,30.92-2.27,32.5s161.08-12.66,182.45-10.71,182.7-21.11,183.2-41.92c.09-4,.18-42.76.26-47s35.37-15.74,35.44-20c.13-8.58.23-73,.31-80.44V463.1c.15-14.52.21-82.43.21-82.43l-85.55,12Z"/><path class="cls-60" d="M599.34,405.13l-121.2,41.62-5.42,77-5.42,77L374.12,632l-2.33,32.13s158.86-12.07,180.8-10.07S733.65,633.35,734.17,612c.1-4.13.19-42.3.27-46.66s34.67-15.83,34.74-20.25c.13-8.81.23-72.37.31-80,0-.2,0-1.73,0-1.93.15-14.91.21-82,.21-82l-85.18,12Z"/><path class="cls-61" d="M596.12,405.59l-119.19,42-5.56,76.14-5.57,76.15-91.62,31.54-2.39,31.76s156.64-11.48,179.15-9.43,179.43-20.39,180-42.31c.1-4.23.19-41.83.27-46.3s34-15.92,34-20.46c.14-9,.25-71.71.33-79.52,0-.21,0-1.71,0-1.92.16-15.3.21-81.48.21-81.48l-84.82,11.91Z"/><path class="cls-62" d="M592.89,406.05,475.72,448.44,470,523.69,464.31,599,374.24,630.8l-2.45,31.39S526.2,651.3,549.3,653.41s177.78-20,178.32-42.52c.11-4.34.2-41.36.29-45.95s33.27-16,33.34-20.66c.14-9.28.25-71,.34-79.06v-1.9c.17-15.7.23-81,.23-81l-84.47,11.88Z"/><path class="cls-63" d="M589.67,406.51,474.51,449.29l-5.84,74.36L462.82,598l-88.53,32.17-2.5,31S524,650.9,547.65,653.06s176.15-19.67,176.7-42.72c.11-4.45.21-40.88.3-45.59s32.57-16.1,32.64-20.88c.14-9.5.26-70.38.34-78.59,0-.22,0-1.68,0-1.89.17-16.1.23-80.55.23-80.55l-84.1,11.84Z"/><path class="cls-64" d="M586.44,407,473.31,450.13l-6,73.48-6,73.48-87,32.48-2.56,30.64s150-9.7,174.22-7.5,174.5-19.31,175.07-42.92c.11-4.56.21-40.41.3-45.23s31.87-16.2,32-21.09c.15-9.73.26-69.72.35-78.13,0-.22,0-1.66,0-1.88.17-16.49.23-80.08.23-80.08l-83.74,11.8Z"/><path class="cls-65" d="M583.22,407.44,472.1,451,466,523.57l-6.14,72.59L374.41,629l-2.62,30.27s147.75-9.11,172.57-6.86,172.87-18.94,173.45-43.12c.11-4.66.22-39.94.31-44.88s31.17-16.28,31.24-21.29c.16-10,.27-69.06.36-77.67,0-.23,0-1.65,0-1.87.18-16.88.24-79.6.24-79.6l-83.38,11.75Z"/><path class="cls-66" d="M580,407.9l-109.1,43.93-6.27,71.7-6.28,71.7-83.87,33.1-2.68,29.9s145.52-8.52,170.93-6.21,171.22-18.59,171.82-43.33c.11-4.77.22-39.47.32-44.52s30.46-16.38,30.54-21.5c.16-10.2.28-68.4.37-77.22,0-.22,0-1.62,0-1.85.18-17.27.24-79.13.24-79.13l-83,11.71Z"/><path class="cls-67" d="M576.77,408.36,469.68,452.67l-6.41,70.81-6.42,70.82-82.32,33.41-2.74,29.53s143.3-7.93,169.28-5.57,169.59-18.23,170.2-43.53c.12-4.88.22-39,.32-44.17s29.77-16.46,29.85-21.7c.16-10.43.28-67.74.38-76.76v-1.84c.19-17.66.26-78.66.26-78.66l-82.66,11.68Z"/><path class="cls-68" d="M573.54,408.82l-105.07,44.7-6.55,69.92-6.57,69.93L374.58,627.1l-2.79,29.16s141.08-7.35,167.63-4.94,168-17.86,168.58-43.73c.12-5,.23-38.53.33-43.81s29.07-16.56,29.15-21.91c.16-10.67.29-67.08.38-76.3,0-.24,0-1.59,0-1.83.19-18.05.26-78.19.26-78.19l-82.3,11.64Z"/><path class="cls-69" d="M570.32,409.29,467.26,454.37l-6.7,69-6.7,69-79.22,34-2.85,28.79s138.85-6.76,166-4.3,166.31-17.5,167-43.93c.12-5.09.23-38.06.33-43.45s28.37-16.65,28.46-22.12c.16-10.9.29-66.42.39-75.84,0-.24,0-1.57,0-1.81.19-18.45.26-77.72.26-77.72l-81.93,11.59Z"/><path class="cls-70" d="M567.09,409.75l-101,45.46-6.85,68.15-6.84,68.15L374.7,625.86l-2.91,28.42s136.63-6.17,164.34-3.65,164.68-17.15,165.33-44.14c.12-5.2.24-37.59.34-43.1s27.67-16.74,27.75-22.32c.17-11.13.3-65.76.4-75.38,0-.25,0-1.55,0-1.8.2-18.84.27-77.25.27-77.25l-81.57,11.55Z"/><path class="cls-71" d="M563.87,410.21l-99,45.85-7,67.26-7,67.26-76.12,34.66-3,28s134.41-5.58,162.7-3,163-16.78,163.69-44.33c.13-5.32.25-37.13.36-42.75s27-16.83,27.05-22.54c.17-11.36.31-65.09.41-74.91,0-.25,0-1.54,0-1.79.2-19.23.27-76.78.27-76.78L645.07,398.7Z"/><path class="cls-72" d="M560.64,410.67l-97,46.24-7.13,66.37-7.13,66.37-74.56,35-3,27.68s132.18-5,161.05-2.37,161.4-16.42,162.07-44.53c.13-5.43.25-36.66.36-42.4s26.27-16.92,26.36-22.74c.18-11.59.31-64.43.42-74.45,0-.26,0-1.52,0-1.78.2-19.63.27-76.31.27-76.31L641.49,399.2Z"/><path class="cls-73" d="M557.42,411.13l-95,46.62-7.27,65.48-7.27,65.49-73,35.28-3.08,27.31s130-4.4,159.41-1.72S691,633.52,691.64,604.85c.14-5.53.26-36.19.37-42s25.57-17,25.66-22.95c.18-11.82.32-63.77.42-74,0-.26,0-1.5,0-1.77.21-20,.29-75.83.29-75.83L637.9,399.7Z"/><path class="cls-74" d="M554.19,411.6l-93,47-7.41,64.59-7.41,64.6-71.47,35.6-3.14,26.93s127.74-3.81,157.76-1.08,158.12-15.71,158.82-44.94c.14-5.64.26-35.72.37-41.68s24.87-17.11,25-23.16c.19-12.06.33-63.11.44-73.53,0-.27,0-1.49,0-1.76.21-20.41.29-75.36.29-75.36L634.31,400.2Z"/><path class="cls-75" d="M551,412.06l-91,47.39-7.56,63.7-7.55,63.71L375,622.77l-3.2,26.56s125.51-3.22,156.11-.44,156.48-15.34,157.2-45.14c.14-5.75.26-35.25.38-41.33s24.17-17.19,24.26-23.36c.19-12.29.33-62.45.45-73.07v-1.75c.22-20.8.3-74.89.3-74.89l-79.76,11.36Z"/><path class="cls-76" d="M547.74,412.52l-88.93,47.77-7.7,62.82-7.7,62.82-68.36,36.22-3.26,26.2s123.29-2.64,154.47.19,154.84-15,155.57-45.34c.14-5.86.27-34.77.39-41s23.46-17.29,23.56-23.57c.19-12.52.34-61.79.45-72.61,0-.28,0-1.46,0-1.73.22-21.2.3-74.42.3-74.42l-79.4,11.31Z"/><path class="cls-77" d="M544.51,413,457.6,461.14l-7.84,61.93L441.92,585,375.1,621.53l-3.31,25.83s121.07-2.05,152.82.84,153.2-14.63,153.95-45.55c.14-6,.27-34.3.39-40.62s22.77-17.37,22.87-23.77c.19-12.76.34-61.13.46-72.15,0-.28,0-1.44,0-1.72.22-21.59.3-73.95.3-73.95l-79,11.27Z"/><path class="cls-78" d="M541.29,413.44,456.39,462l-8,61-8,61.05-65.27,36.83-3.37,25.46s118.85-1.46,151.18,1.48,151.56-14.26,152.32-45.75c.14-6.07.28-33.83.4-40.26s22.07-17.47,22.16-24c.2-13,.36-60.46.47-71.68,0-.29,0-1.42,0-1.71.23-22,.32-73.48.32-73.48L620,402.21Z"/><path class="cls-79" d="M538.06,413.9l-82.88,48.94L447.06,523l-8.13,60.16-63.71,37.14-3.43,25.09s116.62-.87,149.53,2.12,149.92-13.9,150.7-46c.14-6.18.28-33.36.4-39.9s21.37-17.56,21.47-24.2c.2-13.21.36-59.8.48-71.22,0-.29,0-1.41,0-1.7.23-22.37.32-73,.32-73l-78.32,11.19Z"/><path class="cls-80" d="M534.84,414.37,454,463.68l-8.27,59.26-8.27,59.28-62.16,37.46-3.49,24.71s114.4-.28,147.89,2.76S668,633.61,668.74,601c.16-6.29.29-32.89.42-39.55s20.67-17.65,20.77-24.4c.2-13.45.36-59.14.49-70.76V464.6c.24-22.76.33-72.53.33-72.53l-78,11.15Z"/><path class="cls-81" d="M531.61,414.83l-78.84,49.7-8.41,58.37L436,581.29l-60.61,37.77-3.55,24.34S484,643.71,518,646.81s146.64-13.18,147.44-46.36c.16-6.39.3-32.42.43-39.19s20-17.74,20.07-24.61c.21-13.68.37-58.48.49-70.3,0-.31,0-1.37,0-1.68.24-23.16.33-72.06.33-72.06l-77.59,11.11Z"/><path class="cls-82" d="M528.39,415.29l-76.83,50.09L443,522.86l-8.55,57.5-59.07,38.08-3.6,24s110,.9,144.59,4.05,145-12.82,145.82-46.56c.16-6.5.3-31.95.43-38.84S681.9,543.23,682,536.25c.21-13.91.37-57.82.5-69.84,0-.31,0-1.36,0-1.67.24-23.55.33-71.59.33-71.59l-77.23,11.07Z"/><path class="cls-83" d="M525.16,415.75l-74.81,50.47-8.69,56.6L433,579.43l-57.51,38.39-3.66,23.6s107.73,1.49,143,4.69,143.36-12.46,144.19-46.75c.16-6.62.31-31.49.44-38.49s18.56-17.92,18.67-25c.22-14.15.39-57.16.51-69.38,0-.32,0-1.34,0-1.65.25-23.95.34-71.13.34-71.13l-76.87,11Z"/><path class="cls-84" d="M521.94,416.21l-72.8,50.86-8.83,55.71-8.84,55.72-56,38.7-3.72,23.24s105.51,2.07,141.3,5.33,141.73-12.1,142.57-47c.16-6.73.31-31,.44-38.14s17.87-18,18-25.22c.22-14.38.39-56.5.52-68.92,0-.32,0-1.32,0-1.64.25-24.34.35-70.65.35-70.65l-76.51,11Z"/><path class="cls-85" d="M518.71,416.68l-70.78,51.24-9,54.82-9,54.83-54.41,39-3.78,22.87s103.28,2.66,139.66,6,140.09-11.74,140.94-47.16c.16-6.83.31-30.55.45-37.78S670,542.38,670.12,535c.22-14.6.39-55.83.53-68.45,0-.33,0-1.31,0-1.63.25-24.73.35-70.18.35-70.18l-76.15,11Z"/><path class="cls-86" d="M515.49,417.14l-68.76,51.62-9.12,53.93-9.12,53.95L375.62,616l-3.83,22.49s101.06,3.25,138,6.61,138.45-11.38,139.32-47.36c.17-6.94.32-30.08.46-37.42s16.46-18.2,16.58-25.65c.22-14.84.4-55.17.53-68,0-.33,0-1.29,0-1.62.26-25.12.36-69.71.36-69.71l-75.79,10.91Z"/><path class="cls-87" d="M512.26,417.6l-66.74,52-9.26,53L427,575.71l-51.31,39.64-3.89,22.12s98.84,3.84,136.37,7.25,136.81-11,137.69-47.56c.17-7,.32-29.61.46-37.07s15.77-18.28,15.88-25.85c.23-15.07.41-54.51.55-67.53,0-.34,0-1.27,0-1.61.26-25.51.36-69.24.36-69.24l-75.42,10.87Z"/><path class="cls-88" d="M509,418.06l-64.73,52.4-9.4,52.15-9.41,52.17-49.76,40-3.95,21.75s96.62,4.43,134.72,7.9,135.17-10.66,136.07-47.77c.17-7.16.33-29.14.47-36.71s15.06-18.38,15.18-26.06c.23-15.3.42-53.85.55-67.07,0-.34,0-1.26,0-1.6.27-25.9.37-68.76.37-68.76L584.1,407.23Z"/><path class="cls-89" d="M505.81,418.52,443.1,471.3l-9.54,51.27L424,573.85,375.8,614.11l-4,21.38s94.39,5,133.07,8.54,133.54-10.3,134.44-48c.18-7.26.34-28.66.48-36.36s14.37-18.46,14.49-26.26c.24-15.54.42-53.19.56-66.61,0-.35,0-1.24,0-1.59.27-26.29.37-68.29.37-68.29l-74.7,10.79Z"/><path class="cls-90" d="M502.59,419l-60.7,53.16-9.68,50.38-9.7,50.39-46.65,40.57-4.07,21s92.17,5.61,131.43,9.18S635.11,633.74,636,595.51c.18-7.37.34-28.19.49-36S650.19,541,650.31,533c.24-15.77.42-52.53.57-66.15,0-.35,0-1.22,0-1.58.27-26.69.38-67.82.38-67.82l-74.34,10.75Z"/><path class="cls-91" d="M499.36,419.45,440.69,473l-9.83,49.49L421,572l-45.11,40.88-4.12,20.64s89.95,6.2,129.78,9.82S631.83,633.76,632.76,595c.18-7.48.35-27.72.5-35.64s13-18.65,13.08-26.68c.25-16,.44-51.87.58-65.69,0-.36,0-1.21,0-1.56.28-27.09.39-67.35.39-67.35l-74,10.7Z"/><path class="cls-92" d="M496.14,419.91l-56.66,53.93-10,48.6-10,48.62L376,612.26l-4.18,20.27s87.72,6.78,128.14,10.46,128.61-9.22,129.56-48.58c.18-7.59.35-27.25.5-35.29s12.27-18.74,12.39-26.89c.25-16.23.44-51.2.59-65.22,0-.37,0-1.19,0-1.55.28-27.48.39-66.88.39-66.88l-73.62,10.66Z"/><path class="cls-93" d="M492.91,420.37l-54.64,54.32L428.16,522.4,418,570.13l-42,41.51-4.24,19.9s85.5,7.37,126.49,11.1,127-8.86,127.94-48.78c.19-7.7.35-26.78.51-34.93s11.56-18.83,11.69-27.1c.25-16.46.45-50.54.59-64.76,0-.37,0-1.17,0-1.54.28-27.87.39-66.41.39-66.41l-73.25,10.63Z"/><path class="cls-94" d="M489.69,420.83l-52.63,54.71-10.25,46.82L416.54,569.2,376.09,611l-4.3,19.53s83.28,8,124.85,11.74S622,633.8,623,593.31c.19-7.8.36-26.31.52-34.58s10.86-18.92,11-27.3c.25-16.69.45-49.88.6-64.3,0-.38,0-1.16,0-1.53.29-28.26.4-65.94.4-65.94l-72.89,10.59Z"/><path class="cls-95" d="M486.46,421.29l-50.61,55.09-10.4,45.94-10.4,45.95L376.14,610.4l-4.35,19.16s81,8.55,123.2,12.39,123.7-8.14,124.69-49.18c.19-7.92.36-25.85.52-34.23s10.17-19,10.3-27.51c.25-16.92.45-49.22.61-63.84,0-.38,0-1.14,0-1.52.29-28.65.41-65.46.41-65.46L559,410.75Z"/><path class="cls-96" d="M483.24,421.76l-48.59,55.47-10.55,45-10.54,45.06L376.2,609.78l-4.41,18.79s78.83,9.14,121.55,13,122.06-7.78,123.07-49.38c.19-8,.37-25.38.53-33.87s9.46-19.11,9.59-27.72c.26-17.16.47-48.56.62-63.38,0-.39,0-1.12,0-1.51.31-29,.42-65,.42-65l-72.17,10.5Z"/><path class="cls-97" d="M480,422.22l-46.57,55.86-10.69,44.16-10.68,44.17-35.81,42.75-4.47,18.42s76.61,9.73,119.91,13.67,120.42-7.41,121.44-49.58c.19-8.14.37-24.91.53-33.52s8.77-19.19,8.9-27.92c.27-17.39.47-47.9.63-62.92,0-.39,0-1.11,0-1.5.31-29.43.42-64.52.42-64.52l-71.81,10.46Z"/><path class="cls-98" d="M476.79,422.68l-44.56,56.25L421.4,522.2l-10.83,43.28-34.25,43.07-4.53,18s74.38,10.32,118.26,14.31,118.79-7,119.81-49.78c.2-8.24.38-24.44.55-33.16s8.06-19.29,8.2-28.13c.27-17.62.48-47.24.63-62.46,0-.4,0-1.09,0-1.48.31-29.83.42-64.06.42-64.06l-71.45,10.43Z"/><path class="cls-99" d="M473.56,423.14,431,479.77l-11,42.38-11,42.4-32.7,43.38-4.59,17.67s72.16,10.91,116.62,15,117.14-6.7,118.18-50c.2-8.35.39-24,.56-32.81s7.36-19.37,7.5-28.33c.27-17.86.48-46.58.64-62,0-.4,0-1.07,0-1.47.32-30.23.43-63.58.43-63.58l-71.08,10.38Z"/><path class="cls-100" d="M470.34,423.6l-40.53,57L418.7,522.11l-11.11,41.51-31.16,43.69-4.64,17.31s69.94,11.49,115,15.59S602.27,633.88,603.32,590c.21-8.46.39-23.5.56-32.45s6.67-19.47,6.8-28.55c.28-18.08.49-45.91.66-61.53,0-.41,0-1.06,0-1.46.32-30.62.43-63.11.43-63.11l-70.72,10.34Z"/><path class="cls-101" d="M467.11,424.07l-38.51,57.4-11.25,40.6-11.26,40.62-29.6,44-4.7,16.94s67.72,12.08,113.33,16.23,113.86-6,114.93-50.39c.21-8.57.4-23,.57-32.09s6-19.56,6.1-28.76c.28-18.31.5-45.25.66-61.07,0-.41,0-1,0-1.45.32-31,.44-62.64.44-62.64l-70.37,10.3Z"/><path class="cls-102" d="M463.89,424.53,427.4,482.31,416,522l-11.4,39.73-28.05,44.31-4.76,16.57s65.49,12.67,111.68,16.87,112.23-5.61,113.31-50.59c.21-8.67.4-22.55.57-31.74s5.27-19.65,5.41-29c.28-18.55.5-44.59.67-60.61,0-.42,0-1,0-1.44.33-31.4.45-62.17.45-62.17l-70,10.27Z"/><path class="cls-103" d="M460.66,425l-34.47,58.17L414.65,522l-11.54,38.84-26.5,44.62-4.82,16.2s63.27,13.26,110,17.52,110.59-5.26,111.69-50.8c.21-8.78.4-22.08.58-31.38s4.56-19.74,4.71-29.17c.28-18.78.51-43.93.67-60.15,0-.43,0-1,0-1.43.33-31.79.45-61.69.45-61.69L530.3,414.77Z"/><path class="cls-104" d="M457.44,425.45,425,484,413.3,522,401.62,559.9l-24.95,44.94-4.88,15.82s61,13.85,108.39,18.16,109-4.89,110.06-51c.21-8.89.41-21.61.59-31s3.86-19.83,4-29.37c.29-19,.52-43.27.69-59.69,0-.43,0-1,0-1.42.34-32.18.46-61.22.46-61.22l-69.28,10.18Z"/><path class="cls-105" d="M454.21,425.91l-30.44,58.94L412,521.9,400.12,559l-23.4,45.25-4.93,15.45s58.82,14.44,106.74,18.8,107.31-4.53,108.44-51.2c.21-9,.41-21.14.59-30.67s3.16-19.92,3.31-29.58c.3-19.25.52-42.61.7-59.23,0-.44,0-1,0-1.4.34-32.58.46-60.76.46-60.76l-68.91,10.14Z"/><path class="cls-106" d="M451,426.38,422.56,485.7l-12,36.16-12,36.18L376.78,603.6l-5,15.08s56.6,15,105.1,19.45S582.56,634,583.7,586.73c.22-9.11.42-20.68.6-30.32s2.46-20,2.61-29.79c.3-19.48.53-41.95.7-58.77,0-.44,0-1,0-1.39.34-33,.47-60.28.47-60.28l-68.56,10.1Z"/><path class="cls-107" d="M447.76,426.84l-26.4,59.71-12.11,35.27-12.11,35.29L376.84,603l-5,14.71s54.38,15.62,103.45,20.09,104-3.81,105.18-51.6c.23-9.22.43-20.21.61-30s1.77-20.1,1.92-30c.3-19.7.53-41.28.71-58.3,0-.45,0-.94,0-1.38.35-33.37.48-59.81.48-59.81L516,416.78Z"/><path class="cls-108" d="M444.54,427.3l-24.39,60.09L407.9,521.78l-12.26,34.4L376.9,602.36l-5.11,14.35s52.15,16.2,101.81,20.72S576,634,577.15,585.63c.23-9.33.43-19.74.62-29.61s1.06-20.2,1.22-30.21c.3-19.94.54-40.62.72-57.84,0-.45,0-.93,0-1.37.35-33.76.48-59.34.48-59.34l-67.83,10Z"/><path class="cls-109" d="M576.25,407.8l-67.47,10-67.47,10-34.76,94-34.76,94S421.72,632.51,472,637.08s100.75-3.09,101.93-52c.46-19,.84-39.5,1.14-59.67s.55-40,.73-57.38C576.12,433.18,576.25,407.8,576.25,407.8Z"/></g><polygon class="cls-110" points="493.03 711.23 767.14 673.46 767.14 645.77 493.01 684.58 493.03 711.23"/><polygon class="cls-111" points="888.52 566.64 888.52 610.41 858.47 615.72 858.47 572.71 888.52 566.64"/></g><g id="Head"><polygon class="cls-112" points="28.87 381.36 156.58 444.55 156.91 577.71 28.87 514.4 28.87 381.36"/><polygon class="cls-113" points="217.83 436.21 218.15 570.35 156.91 577.71 156.58 444.55 217.83 436.21"/><polygon class="cls-114" points="29.02 381.36 86.67 373.39 217.83 436.21 156.58 444.55 29.02 381.36"/><polygon class="cls-115" points="311.1 443.73 310.88 577.39 248.05 585.08 248.05 452.51 311.1 443.73"/><polygon class="cls-116" points="278.1 427.76 311.15 443.72 248.05 452.51 217.83 436.21 278.1 427.76"/><polygon class="cls-117" points="218.15 570.35 248.05 585.08 248.05 452.51 217.83 436.21 218.15 570.35"/><polygon class="cls-118" points="86.61 312.28 86.61 332.9 55.97 316.99 86.61 312.28"/><polygon class="cls-119" points="55.97 377.61 55.97 316.99 86.81 332.9 86.67 373.39 55.97 377.61"/><polygon class="cls-120" points="86.99 199.74 150.84 231.05 89.96 239.22 218 303.44 218.13 436.21 86.67 373.39 86.99 199.74"/><polygon class="cls-121" points="278.1 295.5 218 303.44 218 436.01 278.1 427.76 278.1 295.5"/><polygon class="cls-122" points="150.84 190.9 86.99 199.74 150.84 231.05 150.84 190.9"/><polygon class="cls-123" points="150.84 231.05 278.1 295.5 218 303.44 89.96 239.22 150.84 231.05"/><polygon class="cls-124" points="150.84 165.12 150.84 231.05 278.1 295.5 278.1 228.02 150.84 165.12"/><polygon class="cls-125" points="339.38 220.95 339.38 286.35 278.1 295.5 278.1 228.02 339.38 220.95"/><polygon class="cls-20" points="150.84 165.12 212.34 156.81 243.78 173.24 305.21 165.03 305.22 144.35 308.15 144.35 308.15 204.45 339.38 220.95 278.1 228.02 150.84 165.12"/><polygon class="cls-126" points="342.33 659.32 342.33 328.33 278.1 295.5 278.1 427.76 311.1 443.73 310.73 644.37 342.33 659.32"/><polygon class="cls-127" points="403.01 319.94 342.33 328.33 278.1 295.5 339.38 286.35 403.01 319.94"/><polygon class="cls-128" points="342.33 659.32 523.8 636.14 524.1 302.85 342.33 328.33 342.33 659.32"/><polygon class="cls-129" points="524.1 302.85 464.29 272.01 464.29 311.23 524.1 302.85"/><polygon class="cls-130" points="374.73 476.07 374.73 608.64 342.33 593.33 342.33 460.76 374.73 476.07"/><polygon class="cls-131" points="496.7 460.76 464.1 443.72 342.33 460.76 374.73 476.07 496.7 460.76"/><polygon class="cls-132" points="496.7 592.15 496.7 460.76 374.73 476.07 374.73 608.64 496.7 592.15"/></g><g id="Tail"><polygon class="cls-133" points="919.74 519.66 978.08 512.02 977.49 576.75 888.52 591.26 888.52 566.64 919.74 560.33 919.74 519.66"/><polygon class="cls-20" points="919.74 452.51 1038.74 436.01 978.34 404.78 919.74 411.85 919.74 452.51"/><polygon class="cls-134" points="977.49 576.75 1038.17 566.81 1038.17 635.54 1040.53 635.16 1099.45 627.21 1099.45 695.2 1101.22 694.99 1161.32 685.83 1161.32 551.54 1101.07 560.92 1100.48 494.93 1038.17 503.18 1038.17 436.01 919.74 452.51 919.74 519.66 978.26 512.02 977.49 576.75"/><polygon class="cls-135" points="915.03 586.85 915.03 612.18 979.25 645.18 979.05 576.5 915.03 586.85"/><polygon class="cls-136" points="1038.17 566.81 1038.17 635.54 979.25 645.18 979.05 576.5 1038.17 566.81"/><polygon class="cls-137" points="976.9 644 976.9 671.69 1040.53 702.33 1040.53 635.16 979.25 645.18 976.9 644"/><polygon class="cls-138" points="1099.45 695.2 1040.53 702.33 1040.53 635.16 1099.45 627.21 1099.45 695.2"/><polygon class="cls-139" points="1038.17 701.15 1038.17 728.84 1101.22 761.25 1101.22 694.99 1040.53 702.33 1038.17 701.15"/><polygon class="cls-140" points="1161.32 685.83 1161.32 752.41 1101.22 761.25 1101.22 694.99 1161.32 685.83"/><polygon class="cls-141" points="1161.32 578.6 1220.09 569.76 1283.65 603.34 1161.32 620.43 1161.32 578.6"/><polygon class="cls-142" points="1283.28 736.5 1283.65 603.34 1161.32 620.43 1161.32 752.41 1283.28 736.5"/><polygon class="cls-143" points="1100.71 520.88 1161.32 551.54 1101.07 560.92 1100.71 520.88"/><polygon class="cls-144" points="1038.17 462.82 1100.48 494.93 1038.17 503.18 1038.17 462.82"/></g><g id="Black_Nose" data-name="Black Nose"><polygon class="cls-145" points="0.44 472.34 61.47 464.1 124.89 496.7 62.45 506.71 0.44 472.34"/><polygon class="cls-145" points="125.06 561.96 124.89 496.7 62.45 506.71 62.45 570.35 125.06 561.96"/><polygon class="cls-12" points="0.44 472.34 0.07 537.94 62.45 570.35 62.45 506.71 0.44 472.34"/></g><g id="Eye"><polygon class="cls-13" points="185.6 354.99 218.07 370.94 278.1 362.95 278.1 427.76 217.83 436.21 185.6 420.66 185.6 354.99"/><polygon class="cls-12" points="90.74 307.07 121.38 322.59 121.38 388.28 90.74 372.82 90.74 307.07"/></g><g id="Right_Ear" data-name="Right Ear"><polygon class="cls-146" points="148.64 191.23 148.41 58.48 179.71 74.83 179.71 8.84 212.11 24.16 212.11 91.33 245.11 106.35 243.78 173.24 212.34 156.81 150.84 165.12 150.84 190.9 148.64 191.23"/><polygon class="cls-147" points="305.22 98.55 305.21 165.03 243.78 173.24 245.11 106.35 305.22 98.55"/><polygon class="cls-148" points="212.11 91.33 273.39 82.49 305.22 98.55 245.11 106.35 212.11 91.33"/><polygon class="cls-149" points="212.11 24.16 273.39 15.53 273.39 82.49 212.11 91.33 212.11 24.16"/><polygon class="cls-150" points="179.71 8.84 243.49 0 273.39 15.53 212.11 24.16 179.71 8.84"/><polygon class="cls-151" points="148.48 58.48 179.71 53.47 179.71 74.83 148.48 58.48"/></g><g id="LeftEar"><polygon class="cls-152" points="308.15 204.45 308.15 138.46 339.38 154.37 339.23 86.61 372.38 103.99 372.38 170.87 403.01 186.04 403.01 319.94 339.38 286.35 339.38 220.95 308.15 204.45"/><polygon class="cls-150" points="399.48 78.36 432.47 96.04 372.38 103.99 339.23 86.61 399.48 78.36"/><polygon class="cls-153" points="432.47 162.03 432.47 96.04 372.38 103.99 372.38 170.87 432.47 162.03"/><polygon class="cls-148" points="464.29 178.53 403.01 186.04 372.38 170.87 432.47 162.03 464.29 178.53"/><polygon class="cls-154" points="464.29 311.23 464.29 178.53 403.01 186.04 403.01 319.94 464.29 311.23"/><polygon class="cls-155" points="308.15 138.46 339.33 133.45 339.38 154.37 308.15 138.46"/></g></g></g></g></svg>